<?xml version="1.0" encoding="UTF-8" standalone="no"?>
<svg
   xmlns:dc="http://purl.org/dc/elements/1.1/"
   xmlns:cc="http://creativecommons.org/ns#"
   xmlns:rdf="http://www.w3.org/1999/02/22-rdf-syntax-ns#"
   xmlns:svg="http://www.w3.org/2000/svg"
   xmlns="http://www.w3.org/2000/svg"
   xmlns:sodipodi="http://sodipodi.sourceforge.net/DTD/sodipodi-0.dtd"
   xmlns:inkscape="http://www.inkscape.org/namespaces/inkscape"
   width="52mm"
   height="52.000004mm"
   viewBox="0 0 52.000001 52.000004"
   version="1.1"
   id="svg1774"
   inkscape:version="1.0.1 (3bc2e813f5, 2020-09-07)"
   sodipodi:docname="jungle-icon.svg">
  <defs
     id="defs1768" />
  <sodipodi:namedview
     id="base"
     pagecolor="#ffffff"
     bordercolor="#666666"
     borderopacity="1.0"
     inkscape:pageopacity="0.0"
     inkscape:pageshadow="2"
     inkscape:zoom="2.8"
     inkscape:cx="52.873213"
     inkscape:cy="75.886016"
     inkscape:document-units="mm"
     inkscape:current-layer="layer1"
     inkscape:document-rotation="0"
     showgrid="false"
     fit-margin-top="0"
     fit-margin-left="0"
     fit-margin-right="0"
     fit-margin-bottom="0"
     inkscape:window-width="1920"
     inkscape:window-height="1017"
     inkscape:window-x="1912"
     inkscape:window-y="-8"
     inkscape:window-maximized="1" />
  <metadata
     id="metadata1771">
    <rdf:RDF>
      <cc:Work
         rdf:about="">
        <dc:format>image/svg+xml</dc:format>
        <dc:type
           rdf:resource="http://purl.org/dc/dcmitype/StillImage" />
        <dc:title></dc:title>
      </cc:Work>
    </rdf:RDF>
  </metadata>
  <g
     inkscape:label="Layer 1"
     inkscape:groupmode="layer"
     id="layer1"
     transform="translate(-174.83248,-117.51031)">
    <path
       style="fill:#c7ab6e;stroke-width:0.495345;fill-opacity:1"
       d="m 196.2401,165.58967 c -2.41875,-2.49913 -4.89383,-4.90655 -5.50015,-5.3498 -0.60633,-0.44325 -2.30323,-1.79556 -3.77089,-3.00512 -2.66808,-2.19885 -2.66859,-2.19985 -3.43514,-6.61573 -1.35247,-7.79104 -3.39476,-12.42013 -7.12705,-16.15424 -0.97766,-0.97815 -1.68024,-1.77844 -1.56125,-1.77844 0.76216,0 5.60493,2.61851 8.20892,4.43861 3.67932,2.57171 5.94085,5.00665 8.09644,8.71724 l 1.58685,2.73154 -0.25538,-5.92813 c -0.28362,-6.58321 -1.45259,-10.6396 -5.8195,-20.19388 -1.2422,-2.71778 -2.16783,-4.94141 -2.05694,-4.94141 0.63422,0 8.97738,12.66057 12.11347,18.38192 6.91674,12.61861 8.55333,21.32628 5.7816,30.76167 -1.17184,3.98912 -1.40922,3.94877 -6.26098,-1.06423 z m 12.93448,-5.4659 c 0,-6.07373 4.70796,-16.69523 9.59367,-21.64408 2.50169,-2.53399 7.01733,-5.79335 8.02636,-5.79335 0.20301,0 -0.43079,0.80029 -1.40845,1.77844 -3.74416,3.74598 -5.77392,8.36028 -7.14117,16.23418 l -0.78077,4.49649 -4.14481,3.79932 -4.14483,3.7993 z m -4.29872,-16.54895 -1.97053,-5.23044 2.56398,-4.46435 c 2.22241,-3.86961 11.16377,-16.36972 11.70928,-16.36972 0.10677,0 -0.94048,2.55434 -2.32709,5.67629 -3.39284,7.63886 -4.49712,11.07013 -5.15184,16.00799 -0.56032,4.22565 -1.9892,9.61858 -2.54717,9.61347 -0.16837,-0.002 -1.19285,-2.35649 -2.27663,-5.23324 z"
       id="path2405" />
  </g>
</svg>
