<?xml version="1.0" encoding="UTF-8" standalone="no"?>
<svg
   xmlns:dc="http://purl.org/dc/elements/1.1/"
   xmlns:cc="http://creativecommons.org/ns#"
   xmlns:rdf="http://www.w3.org/1999/02/22-rdf-syntax-ns#"
   xmlns:svg="http://www.w3.org/2000/svg"
   xmlns="http://www.w3.org/2000/svg"
   xmlns:xlink="http://www.w3.org/1999/xlink"
   xmlns:sodipodi="http://sodipodi.sourceforge.net/DTD/sodipodi-0.dtd"
   xmlns:inkscape="http://www.inkscape.org/namespaces/inkscape"
   width="305.93491mm"
   height="81.009247mm"
   viewBox="0 0 305.93491 81.009248"
   version="1.1"
   id="svg8"
   inkscape:version="1.0.1 (3bc2e813f5, 2020-09-07)"
   sodipodi:docname="blossom-draft.svg">
  <defs
     id="defs2">
    <linearGradient
       inkscape:collect="always"
       id="linearGradient1091">
      <stop
         style="stop-color:#493d7b;stop-opacity:1"
         offset="0"
         id="stop1087" />
      <stop
         style="stop-color:#a81740;stop-opacity:1"
         offset="1"
         id="stop1089" />
    </linearGradient>
    <linearGradient
       inkscape:collect="always"
       xlink:href="#linearGradient1091"
       id="linearGradient1093"
       x1="130.16028"
       y1="95.94976"
       x2="130.42754"
       y2="54.522987"
       gradientUnits="userSpaceOnUse" />
    <linearGradient
       inkscape:collect="always"
       xlink:href="#linearGradient1091"
       id="linearGradient1109"
       x1="100.76061"
       y1="91.138908"
       x2="88.198944"
       y2="58.264755"
       gradientUnits="userSpaceOnUse"
       gradientTransform="matrix(1.0581786,0,0,1.0292257,-5.5766637,-3.2503084)" />
    <linearGradient
       inkscape:collect="always"
       xlink:href="#linearGradient1091"
       id="linearGradient1139"
       x1="90.60437"
       y1="66.282845"
       x2="68.688271"
       y2="28.865108"
       gradientUnits="userSpaceOnUse" />
    <linearGradient
       inkscape:collect="always"
       xlink:href="#linearGradient1091"
       id="linearGradient1183"
       gradientUnits="userSpaceOnUse"
       x1="93.277061"
       y1="107.97689"
       x2="61.471989"
       y2="76.171822" />
    <linearGradient
       inkscape:collect="always"
       xlink:href="#linearGradient1091"
       id="linearGradient1213"
       x1="67.234879"
       y1="109.48139"
       x2="20.118523"
       y2="71.261841"
       gradientUnits="userSpaceOnUse" />
    <linearGradient
       inkscape:collect="always"
       xlink:href="#linearGradient1091"
       id="linearGradient1229"
       gradientUnits="userSpaceOnUse"
       x1="101.76249"
       y1="125.27258"
       x2="37.150463"
       y2="145.39462" />
    <linearGradient
       inkscape:collect="always"
       xlink:href="#linearGradient1091"
       id="linearGradient1239"
       gradientUnits="userSpaceOnUse"
       x1="133.10022"
       y1="137.64381"
       x2="133.36749"
       y2="167.84528" />
    <linearGradient
       inkscape:collect="always"
       xlink:href="#linearGradient1091"
       id="linearGradient1249"
       gradientUnits="userSpaceOnUse"
       x1="172.51651"
       y1="129.49911"
       x2="216.75558"
       y2="144.05827"
       gradientTransform="matrix(1,0,0,0.97818544,0,2.577859)" />
    <linearGradient
       inkscape:collect="always"
       xlink:href="#linearGradient1091"
       id="linearGradient1259"
       gradientUnits="userSpaceOnUse"
       x1="143.52374"
       y1="120.00402"
       x2="215.15198"
       y2="91.406181"
       gradientTransform="matrix(1.0524513,0,0,1.0725804,-8.6500286,-8.1081187)" />
    <linearGradient
       inkscape:collect="always"
       xlink:href="#linearGradient1091"
       id="linearGradient1269"
       gradientUnits="userSpaceOnUse"
       x1="116.79678"
       y1="118.13313"
       x2="51.850288"
       y2="88.733482"
       gradientTransform="matrix(1.0391188,0,0,1.0780009,-4.0125785,-8.8373022)" />
    <linearGradient
       inkscape:collect="always"
       xlink:href="#linearGradient1091"
       id="linearGradient1279"
       gradientUnits="userSpaceOnUse"
       x1="195.90857"
       y1="107.97689"
       x2="232.52449"
       y2="74.033661" />
    <linearGradient
       inkscape:collect="always"
       xlink:href="#linearGradient1091"
       id="linearGradient1281"
       x1="166.77618"
       y1="105.57146"
       x2="202.32303"
       y2="73.766388"
       gradientUnits="userSpaceOnUse" />
    <linearGradient
       inkscape:collect="always"
       xlink:href="#linearGradient1091"
       id="linearGradient1291"
       gradientUnits="userSpaceOnUse"
       x1="159.02538"
       y1="91.406181"
       x2="174.79427"
       y2="57.462948"
       gradientTransform="matrix(1.0543928,0,0,1.0235702,-9.2526686,-2.4511572)" />
    <linearGradient
       inkscape:collect="always"
       xlink:href="#linearGradient1091"
       id="linearGradient1293"
       x1="171.58704"
       y1="67.084648"
       x2="193.50314"
       y2="30.735996"
       gradientUnits="userSpaceOnUse" />
    <linearGradient
       inkscape:collect="always"
       xlink:href="#linearGradient1091"
       id="linearGradient1303"
       gradientUnits="userSpaceOnUse"
       x1="111.18412"
       y1="61.739262"
       x2="106.10599"
       y2="20.045214" />
    <linearGradient
       inkscape:collect="always"
       xlink:href="#linearGradient1091"
       id="linearGradient1313"
       gradientUnits="userSpaceOnUse"
       x1="149.9382"
       y1="61.204723"
       x2="160.36171"
       y2="18.174328" />
    <linearGradient
       inkscape:collect="always"
       xlink:href="#linearGradient1091"
       id="linearGradient1323"
       gradientUnits="userSpaceOnUse"
       x1="130.42754"
       y1="33.408691"
       x2="131.22934"
       y2="5.6126604" />
  </defs>
  <sodipodi:namedview
     id="base"
     pagecolor="#ffffff"
     bordercolor="#666666"
     borderopacity="1.0"
     inkscape:pageopacity="0.0"
     inkscape:pageshadow="2"
     inkscape:zoom="0.35"
     inkscape:cx="-268.8091"
     inkscape:cy="48.915547"
     inkscape:document-units="mm"
     inkscape:current-layer="layer3"
     inkscape:document-rotation="0"
     showgrid="false"
     fit-margin-top="0"
     fit-margin-left="0"
     fit-margin-right="0"
     fit-margin-bottom="0"
     inkscape:window-width="1920"
     inkscape:window-height="1017"
     inkscape:window-x="1912"
     inkscape:window-y="-8"
     inkscape:window-maximized="1" />
  <metadata
     id="metadata5">
    <rdf:RDF>
      <cc:Work
         rdf:about="">
        <dc:format>image/svg+xml</dc:format>
        <dc:type
           rdf:resource="http://purl.org/dc/dcmitype/StillImage" />
        <dc:title></dc:title>
      </cc:Work>
    </rdf:RDF>
  </metadata>
  <g
     inkscape:groupmode="layer"
     id="layer3"
     inkscape:label="Top"
     transform="translate(-24.014951,3.8801789)">
    <g
       id="g950"
       transform="matrix(0.36363227,0,0,0.36363227,233.05922,4.3865417)"
       style="stroke:none;stroke-width:0.761759;stroke-miterlimit:4;stroke-dasharray:none;stroke-opacity:1">
      <path
         style="opacity:0.999;fill:url(#linearGradient1093);fill-opacity:1;stroke:none;stroke-width:0.761759;stroke-linejoin:round;stroke-miterlimit:4;stroke-dasharray:none;stroke-opacity:1;paint-order:markers fill stroke"
         d="m 130.26997,127.91501 c -1.14237,-4.41462 -2.60025,-7.57739 -4.78366,-10.3778 -1.22091,-1.56593 -3.61517,-4.01771 -5.27766,-5.40446 -0.78315,-0.65326 -1.51562,-1.32771 -1.62771,-1.49878 -0.11209,-0.17107 -0.29549,-0.75553 -0.40756,-1.29881 -1.19286,-5.78281 -1.05691,-15.518865 0.33287,-23.839312 1.35359,-8.103732 3.91572,-16.592105 8.0205,-26.572022 2.18798,-5.319591 2.47333,-6.118587 2.10361,-5.890085 -0.18162,0.112247 -3.25106,6.354826 -4.3312,8.808754 -3.53267,8.025651 -6.09787,16.68716 -7.53952,25.457422 -0.57749,3.51317 -0.7185,5.601364 -0.71739,10.623966 0.001,4.927097 0.14892,7.186457 0.64641,9.878887 0.17658,0.95563 0.30882,1.74954 0.29387,1.76423 -0.0149,0.0147 -1.10963,-0.6524 -2.43261,-1.48244 -1.32299,-0.83004 -3.42773,-2.07905 -4.67722,-2.77557 -3.35612,-1.87088 -4.21975,-2.40575 -4.45275,-2.75773 -0.44102,-0.66622 -0.33381,-7.548097 0.1741,-11.176736 1.02513,-7.323661 4.28502,-16.548205 9.60996,-27.193419 2.9642,-5.925791 5.6538,-10.568697 11.57332,-19.978399 1.71078,-2.719467 3.26718,-5.200063 3.45866,-5.512432 0.19149,-0.312373 0.38246,-0.56795 0.42438,-0.56795 0.0419,0 1.07979,1.886702 2.30637,4.192667 4.15421,7.809931 9.6057,18.691048 11.43615,22.826469 3.14037,7.094797 6.21171,16.247846 7.61473,22.692998 0.74104,3.404142 0.92306,5.222996 1.04316,10.423511 0.0972,4.209941 -0.0675,6.179371 -0.54112,6.470691 -0.1566,0.0963 -1.33711,0.79216 -2.62335,1.54632 -1.28623,0.75415 -2.98983,1.7898 -3.78576,2.30144 -0.79594,0.51164 -1.4809,0.89651 -1.52213,0.85528 -0.0412,-0.0412 0.0831,-1.0237 0.27639,-2.18326 1.02326,-6.13999 0.96395,-12.190233 -0.19556,-19.948523 -1.21238,-8.112021 -3.86566,-17.154434 -7.46988,-25.457422 -0.87869,-2.024216 -3.50219,-7.395683 -3.7856,-7.750815 -0.55381,-0.693939 -0.11569,0.576371 1.53134,4.440034 5.4706,12.83313 7.92297,21.303424 9.14166,31.574533 0.28792,2.426642 0.4115,9.911533 0.21291,12.895753 -0.17412,2.61645 -0.56626,5.35555 -0.94887,6.62781 -0.28997,0.96423 -0.31539,0.99247 -2.85067,3.16788 -1.46533,1.25733 -3.77864,3.73582 -4.91223,5.26299 -1.87268,2.52286 -3.35098,5.7868 -4.25582,9.39648 -0.1474,0.588 -0.34999,1.30518 -0.45021,1.59375 l -0.18221,0.52466 z"
         id="path988" />
      <path
         style="opacity:0.999;fill:url(#linearGradient1109);fill-opacity:1;stroke:none;stroke-width:0.761759;stroke-linejoin:round;stroke-miterlimit:4;stroke-dasharray:none;stroke-opacity:1;paint-order:markers fill stroke"
         d="m 100.83261,100.24117 c -1.703863,-0.967759 -3.637888,-2.122312 -4.297833,-2.565684 l -1.199899,-0.806129 -1.047313,-3.576385 c -2.034742,-6.948278 -3.206184,-12.745803 -4.542259,-22.479881 -0.749521,-5.4607 -0.875998,-6.2249 -1.008852,-6.095684 -0.159741,0.15537 0.308651,6.374626 0.708124,9.402376 0.840993,6.374211 2.509177,14.656246 3.97595,19.739407 0.323578,1.121379 0.553438,2.072801 0.510801,2.114276 -0.196944,0.191554 -5.445513,-3.828978 -6.629682,-5.078497 -1.01796,-1.074142 -1.434548,-2.158273 -2.663247,-6.930877 -1.564765,-6.077989 -2.7332,-12.64128 -3.206915,-18.013787 -0.234872,-2.663739 -0.203694,-20.383757 0.03628,-20.616819 0.157316,-0.152789 5.366313,2.960532 7.767631,4.642568 4.593218,3.217378 11.753414,9.796837 15.786854,14.506423 2.22085,2.593143 5.40852,6.682486 5.41574,6.947641 0.008,0.324274 -2.30844,6.480246 -2.43976,6.481422 -0.0747,5.45e-4 -1.05672,-0.983499 -2.18257,-2.187037 -5.80533,-6.205948 -13.418879,-13.59471 -13.71326,-13.308385 -0.176587,0.171755 0.797964,1.273251 4.933867,5.576556 6.391193,6.649876 9.852723,10.625169 10.123543,11.626097 0.0684,0.25255 -0.31528,2.126648 -0.89584,4.376506 -1.64415,6.371655 -2.02772,9.090547 -2.0329,14.410414 -0.002,1.727109 -0.07,3.242539 -0.15179,3.367619 -0.10211,0.15603 -1.12094,-0.32478 -3.24667,-1.53214 z"
         id="path990" />
      <path
         style="opacity:0.999;fill:url(#linearGradient1303);fill-opacity:1;stroke:none;stroke-width:0.761759;stroke-linejoin:round;stroke-miterlimit:4;stroke-dasharray:none;stroke-opacity:1;paint-order:markers fill stroke"
         d="m 110.28698,67.481327 c -0.49555,-0.862748 -1.99373,-3.372845 -3.3293,-5.577985 l -2.42832,-4.009348 0.002,-5.629045 c 0.002,-7.695046 0.27497,-11.418937 1.2495,-17.062823 0.77465,-4.486237 2.83893,-12.095239 3.28137,-12.095239 0.28525,0 1.39533,1.487009 3.45654,4.630209 3.49703,5.33274 6.71094,11.287646 8.88501,16.462658 1.69948,4.045325 1.69577,3.413196 0.0366,6.216118 -2.49219,4.210097 -5.63914,9.873144 -7.92894,14.268397 -1.2184,2.338726 -2.23954,4.277762 -2.26919,4.308964 -0.0297,0.0312 -0.45935,-0.649155 -0.95489,-1.511906 z"
         id="path992" />
      <path
         style="opacity:0.999;fill:url(#linearGradient1139);fill-opacity:1;stroke:none;stroke-width:0.761759;stroke-linejoin:round;stroke-miterlimit:4;stroke-dasharray:none;stroke-opacity:1;paint-order:markers fill stroke"
         d="m 77.774362,77.157878 c -2.353847,-1.148019 -4.400053,-2.270467 -4.696873,-2.576473 -0.514802,-0.53073 -0.966959,-1.506366 -3.445065,-7.433508 -4.309565,-10.30763 -7.57885,-21.961954 -9.173528,-32.701725 -0.769665,-5.183494 -0.515794,-15.36478 0.435163,-17.451903 0.125791,-0.27608 0.314018,-0.501965 0.418285,-0.501965 0.393737,0 4.227431,2.148872 6.577119,3.686625 5.132998,3.359293 8.684442,6.31236 14.070774,11.700018 6.513086,6.514689 11.455283,12.536918 17.306104,21.088058 3.263149,4.769186 8.640939,13.505024 8.438379,13.707573 -0.0501,0.05011 -1.01433,-0.986467 -2.14272,-2.303507 -4.43517,-5.176695 -9.00197,-9.517811 -13.789336,-13.107887 -4.377788,-3.282932 -10.393399,-6.959081 -10.770568,-6.58191 -0.04434,0.04434 -0.190442,0.714886 -0.32467,1.490096 -0.177575,1.025578 -0.244047,4.008943 -0.244047,10.953374 0,10.212631 0.04931,11.043407 1.063469,17.918803 0.31147,2.111553 0.539787,3.908801 0.507371,3.99388 -0.03242,0.08508 -1.935851,-0.760719 -4.229857,-1.879549 z"
         id="path994" />
      <path
         style="opacity:0.999;fill:url(#linearGradient1323);fill-opacity:1;stroke:none;stroke-width:0.761759;stroke-linejoin:round;stroke-miterlimit:4;stroke-dasharray:none;stroke-opacity:1;paint-order:markers fill stroke"
         d="m 135.14403,42.909479 c -3.40997,-6.270263 -3.92214,-6.970919 -4.6525,-6.364777 -0.15896,0.131934 -1.65137,2.273884 -3.31644,4.759893 -1.66507,2.48601 -3.08889,4.447424 -3.16403,4.358699 -0.0751,-0.08873 -0.3769,-0.790099 -0.67058,-1.558605 -0.69647,-1.822545 -4.12978,-8.599252 -6.20751,-12.252452 l -1.63651,-2.877421 1.08644,-2.319752 c 3.60927,-7.706493 7.5851,-14.346034 12.42323,-20.7464767 1.95497,-2.5862677 1.79507,-2.52808 2.86948,-1.0442017 4.08466,5.6413724 9.34272,14.7934624 12.16365,21.1718174 1.93197,4.368345 1.98548,3.397234 -0.43329,7.863446 -2.38134,4.397102 -3.75296,7.218283 -5.08941,10.468062 -0.51288,1.247137 -0.99282,2.327836 -1.06654,2.401549 -0.0737,0.07371 -1.11141,-1.663187 -2.30599,-3.859781 z"
         id="path996" />
      <path
         style="opacity:0.999;fill:url(#linearGradient1313);fill-opacity:1;stroke:none;stroke-width:0.761759;stroke-linejoin:round;stroke-miterlimit:4;stroke-dasharray:none;stroke-opacity:1;paint-order:markers fill stroke"
         d="m 148.48414,70.495034 c -1.1469,-2.845961 -5.32855,-11.945381 -7.60592,-16.55078 l -2.36712,-4.786886 1.2642,-3.150614 c 1.57374,-3.922043 4.29713,-9.500912 6.33536,-12.977992 1.56508,-2.669923 5.43735,-8.59994 6.28639,-9.627004 l 0.45927,-0.555575 0.41289,1.103556 c 2.85395,7.627837 4.16695,16.795689 4.17407,29.144756 l 0.003,4.757698 -1.41858,2.285888 c -1.76094,2.83759 -5.07707,8.52754 -6.03644,10.35757 -0.39506,0.753591 -0.77154,1.369888 -0.83662,1.369549 -0.0651,-2.64e-4 -0.3667,-0.616913 -0.67025,-1.370166 z"
         id="path998" />
      <path
         style="opacity:0.999;fill:url(#linearGradient1291);fill-opacity:1;stroke:none;stroke-width:0.761759;stroke-linejoin:round;stroke-miterlimit:4;stroke-dasharray:none;stroke-opacity:1;paint-order:markers fill stroke"
         d="m 154.10866,98.529037 c -0.12244,-5.840582 -0.28058,-7.238199 -1.42825,-12.622128 l -0.65978,-3.095081 1.06048,-1.380072 c 2.70455,-3.519635 5.78349,-6.978026 11.85988,-13.321563 4.29668,-4.485586 4.85404,-5.107866 4.70479,-5.252769 -0.0643,-0.06245 -0.46224,0.151922 -0.88424,0.47638 -1.42038,1.09208 -9.59284,9.310085 -13.42786,13.502698 -2.0917,2.286733 -3.82823,4.131421 -3.85896,4.099299 -0.11547,-0.120707 -2.09033,-6.084263 -2.09033,-6.312275 0,-0.323264 4.06037,-5.808742 6.48421,-8.760042 3.90054,-4.749336 12.62527,-12.768912 17.20298,-15.812594 2.33063,-1.549614 6.62346,-4.089875 6.91156,-4.089875 0.38816,0 0.48701,2.02241 0.48701,9.963568 0,7.85957 -0.15647,10.374043 -1.01646,16.334325 -1.11549,7.731112 -3.31319,16.527136 -4.57369,18.305646 -0.32999,0.465623 -1.3369,1.447458 -2.23753,2.181855 -1.77981,1.45128 -4.74104,3.55974 -4.85039,3.453585 -0.0374,-0.03633 0.32994,-1.583691 0.81635,-3.438583 2.31745,-8.837341 3.92036,-18.20778 4.18662,-24.474625 0.14296,-3.364524 -0.13538,-2.543196 -0.79236,2.338159 -1.13792,8.454699 -2.00789,13.145639 -3.49874,18.865647 -1.26414,4.850178 -2.11159,7.471098 -2.55482,7.901374 -0.56757,0.550974 -11.23654,6.601824 -11.64046,6.601824 -0.047,0 -0.13702,-2.45914 -0.20001,-5.464753 z"
         id="path1000" />
      <path
         style="opacity:0.999;fill:url(#linearGradient1293);fill-opacity:1;stroke:none;stroke-width:0.761759;stroke-linejoin:round;stroke-miterlimit:4;stroke-dasharray:none;stroke-opacity:1;paint-order:markers fill stroke"
         d="m 179.82821,78.712924 c 0.26504,-1.243357 1.08073,-6.803843 1.37869,-9.398447 0.26485,-2.306262 0.3258,-4.561449 0.32686,-12.095239 0.001,-9.06336 -0.15021,-11.951319 -0.65332,-12.454424 -0.60753,-0.607534 -10.04791,5.618379 -14.94552,9.856549 -2.3852,2.064038 -7.20742,6.971898 -9.51594,9.68493 -3.05796,3.593782 -3.09826,3.517603 -0.46355,-0.876102 4.13833,-6.901164 10.10466,-15.556388 14.44291,-20.952023 4.47078,-5.560478 11.95045,-13.326583 16.25347,-16.875921 4.98013,-4.107847 13.61694,-9.628489 14.18097,-9.064464 0.22886,0.228868 0.65219,2.233896 0.86822,4.11226 0.3484,3.029188 0.29581,9.614734 -0.10185,12.756695 -0.7778,6.145318 -2.32025,13.173509 -4.37448,19.93239 -1.64026,5.396775 -3.61096,10.664513 -7.10037,18.979462 l -1.02277,2.437146 -3.96875,1.939224 c -2.18281,1.066572 -4.29405,2.07304 -4.69165,2.236597 l -0.72291,0.297373 z"
         id="path1002" />
      <path
         style="opacity:0.999;fill:url(#linearGradient1281);fill-opacity:1;stroke:none;stroke-width:0.761759;stroke-linejoin:round;stroke-miterlimit:4;stroke-dasharray:none;stroke-opacity:1;paint-order:markers fill stroke"
         d="m 159.80838,124.91957 c 8.07441,-4.59898 14.45667,-11.35868 18.41907,-19.50837 3.35179,-6.89382 5.01092,-14.097035 5.60562,-24.337113 l 0.1073,-1.847533 4.47046,-2.25117 c 9.68836,-4.878724 14.85011,-8.288057 19.75333,-13.04707 l 2.43394,-2.362351 -0.13266,0.850448 c -0.97677,6.26215 -4.40489,15.673263 -8.34731,22.91561 -10.19,18.719359 -25.07965,32.794139 -42.43704,40.114549 -0.85917,0.36236 -1.64976,0.65843 -1.75685,0.65795 -0.10711,-5.3e-4 0.74076,-0.53371 1.88414,-1.18495 z"
         id="path1004" />
      <path
         style="opacity:0.999;fill:url(#linearGradient1259);fill-opacity:1;stroke:none;stroke-width:0.761759;stroke-linejoin:round;stroke-miterlimit:4;stroke-dasharray:none;stroke-opacity:1;paint-order:markers fill stroke"
         d="m 131.09837,130.95077 c 0.38441,-2.45117 2.24478,-6.90724 4.08328,-9.78051 3.80871,-5.95235 7.32611,-8.64556 23.16544,-17.73731 6.87574,-3.946661 9.28369,-5.430744 11.89887,-7.333584 4.09278,-2.977953 7.82989,-6.55477 10.64677,-10.190074 1.65069,-2.130295 1.7227,-2.194794 1.78083,-1.595019 0.14388,1.484858 -1.17912,8.138677 -2.3909,12.024638 -4.28647,13.745929 -12.46852,23.496359 -24.91907,29.695689 -6.14297,3.05868 -12.21958,4.65826 -20.77268,5.46811 -1.79817,0.17027 -3.35002,0.30957 -3.44853,0.30957 -0.0993,0 -0.1189,-0.38383 -0.0439,-0.86151 z"
         id="path1006" />
      <path
         style="opacity:0.999;fill:#893333;fill-opacity:1;stroke:none;stroke-width:0.761759;stroke-linejoin:round;stroke-miterlimit:4;stroke-dasharray:none;stroke-opacity:1;paint-order:markers fill stroke"
         d="m 177.86227,87.626252 c 0.009,-0.28788 1.44652,-6.125551 1.52593,-6.198521 0.13392,-0.123065 3.56027,-1.813403 3.67581,-1.813403 0.17151,0 -0.95029,1.933469 -2.51917,4.34187 -1.53323,2.353683 -2.69135,3.938111 -2.68257,3.670054 z"
         id="path1008" />
      <path
         style="opacity:0.999;fill:url(#linearGradient1279);fill-opacity:1;stroke:none;stroke-width:0.761759;stroke-linejoin:round;stroke-miterlimit:4;stroke-dasharray:none;stroke-opacity:1;paint-order:markers fill stroke"
         d="m 149.69751,130.53797 c 5.22789,-1.45957 6.72222,-1.90655 9.35499,-2.79825 9.11713,-3.0879 15.57521,-6.29879 24.00141,-11.93324 7.81509,-5.22581 13.53656,-9.94007 24.00149,-19.776257 2.59859,-2.442461 5.78776,-5.422281 7.08705,-6.62182 2.66409,-2.459553 3.13107,-2.946244 2.97584,-3.101469 -0.0598,-0.05976 -0.28898,-0.01215 -0.5094,0.105833 -0.51197,0.273997 -4.26784,3.404645 -6.71867,5.600248 -17.42252,15.608145 -23.65113,20.546215 -32.74668,25.961725 -1.27578,0.7596 -2.35688,1.34381 -2.40245,1.29824 -0.0456,-0.0456 0.65806,-0.60611 1.56364,-1.24563 9.01677,-6.36769 18.71017,-17.19495 25.49812,-28.480683 l 2.03975,-3.391324 3.59078,-2.673186 c 10.65105,-7.929282 16.97977,-11.44231 24.53039,-13.616651 6.41244,-1.846583 10.76564,-2.119701 16.21416,-1.017275 2.93433,0.593714 7.16393,1.911268 7.16393,2.231617 0,0.0725 -0.74414,0.332973 -1.65365,0.578834 -2.41502,0.652841 -5.87555,1.984899 -8.39824,3.23273 -7.12411,3.523879 -12.23277,7.718433 -22.57785,18.537901 -11.29562,11.813607 -17.48219,17.583377 -23.31074,21.740237 -5.6567,4.03431 -13.16452,7.94016 -20.04158,10.42639 -7.81644,2.82584 -18.67782,4.8255 -27.90579,5.13765 -2.76353,0.0935 -2.78389,0.0912 -1.7565,-0.19562 z"
         id="path1010" />
      <path
         style="opacity:0.999;fill:url(#linearGradient1249);fill-opacity:1;stroke:none;stroke-width:0.761759;stroke-linejoin:round;stroke-miterlimit:4;stroke-dasharray:none;stroke-opacity:1;paint-order:markers fill stroke"
         d="m 187.11716,154.02382 c -2.47025,-0.28894 -6.45973,-0.92731 -8.22098,-1.31545 -4.51426,-0.99483 -7.41128,-2.00192 -12.5427,-4.36018 l -3.47127,-1.59531 0.0931,-1.49052 c 0.23083,-3.69613 -0.64638,-8.03456 -2.42446,-11.99059 -0.35638,-0.79292 -0.64797,-1.51124 -0.64797,-1.59627 0,-0.085 0.48901,-0.213 1.08668,-0.28436 1.62677,-0.19424 7.03733,-1.15875 9.42512,-1.68016 l 2.10183,-0.45898 2.19372,0.65045 c 1.20655,0.35774 5.49097,1.72633 9.52094,3.0413 7.55266,2.46443 11.62698,3.56496 14.40931,3.89216 1.93053,0.22704 4.35169,0.24679 4.35169,0.0355 0,-0.084 -1.12684,-0.3435 -2.50409,-0.57653 -3.54071,-0.59907 -5.96275,-1.3192 -13.27942,-3.94823 -3.53243,-1.26929 -7.47148,-2.66303 -8.75346,-3.09723 -1.78038,-0.60301 -2.25664,-0.83009 -2.01659,-0.9615 0.17285,-0.0946 1.64696,-0.65152 3.27581,-1.23755 6.53361,-2.35068 10.59644,-4.21187 15.68632,-7.18594 l 2.89741,-1.69298 2.48875,0.99076 c 9.60046,3.82186 16.94192,8.23752 22.15574,13.32596 2.65297,2.58919 3.563,3.7183 5.16102,6.4035 1.08983,1.83127 2.46948,4.77837 2.47731,5.29185 0.005,0.33142 -0.61497,0.68053 -3.42804,1.93015 -8.29828,3.68625 -17.29641,6.38172 -24.53874,7.35078 -3.75367,0.50226 -13.10086,0.83965 -15.49702,0.55937 z"
         id="path1012" />
      <path
         style="opacity:0.999;fill:url(#linearGradient1239);fill-opacity:1;stroke:none;stroke-width:0.761759;stroke-linejoin:round;stroke-miterlimit:4;stroke-dasharray:none;stroke-opacity:1;paint-order:markers fill stroke"
         d="m 128.62534,177.6798 c -14.09277,-11.7899 -21.44736,-20.80156 -23.62869,-28.95249 -1.31688,-4.92075 -0.83939,-9.63948 1.4429,-14.25919 l 0.95701,-1.93713 h 8.93107 c 4.91209,0 9.97663,-0.0562 11.25452,-0.12493 l 2.32345,-0.12493 -0.10769,0.55015 c -0.0592,0.30259 -0.24727,1.0179 -0.41787,1.5896 -0.24049,0.80587 -0.28865,1.52778 -0.21434,3.21279 0.10955,2.48375 0.34967,3.8462 1.63313,9.26619 1.3533,5.71491 1.57181,7.13029 1.43607,9.30189 -0.12424,1.98773 0.0628,2.37202 0.56707,1.16511 0.76064,-1.82046 0.62735,-5.06818 -0.40065,-9.76269 -2.14847,-9.81117 -2.46511,-11.98499 -1.9961,-13.70352 0.41792,-1.53136 -0.0854,-1.46754 11.05976,-1.40243 8.69162,0.0508 15.15619,-0.12811 16.18874,-0.44794 0.557,-0.17253 2.55289,5.06639 3.21743,8.44527 0.3125,1.58892 0.30917,6.18905 -0.006,7.62696 -0.67801,3.09804 -1.99479,6.22612 -3.6839,8.75125 -2.88354,4.31072 -8.34367,9.75286 -14.66576,14.61742 -2.38286,1.83351 -11.36225,8.11448 -11.56827,8.09187 -0.03,-0.003 -1.07504,-0.85975 -2.32236,-1.90325 z"
         id="path1014" />
      <path
         style="opacity:0.999;fill:url(#linearGradient1269);fill-opacity:1;stroke:none;stroke-width:0.761759;stroke-linejoin:round;stroke-miterlimit:4;stroke-dasharray:none;stroke-opacity:1;paint-order:markers fill stroke"
         d="m 127.38606,131.57235 c -13.99403,-1.08493 -25.49671,-6.1316 -34.024319,-14.92779 -7.270989,-7.5 -12.093653,-17.877717 -13.790284,-29.67481 -0.169208,-1.176537 -0.35384,-2.437111 -0.410295,-2.801279 -0.05645,-0.364167 -0.02098,-0.662121 0.07884,-0.662121 0.09982,0 0.677048,0.683053 1.282737,1.517892 3.21886,4.436668 7.498266,8.477195 12.987584,12.262606 1.898845,1.309436 4.139792,2.672107 12.808837,7.788742 12.02898,7.09975 15.5857,9.86915 19.02333,14.81229 2.10006,3.01978 4.36616,8.19741 4.87492,11.13833 0.12208,0.7057 0.0978,0.76178 -0.31859,0.735 -0.24791,-0.0159 -1.37865,-0.1009 -2.51276,-0.18886 z"
         id="path1016" />
      <path
         style="opacity:0.999;fill:url(#linearGradient1183);fill-opacity:1;stroke:none;stroke-width:0.761759;stroke-linejoin:round;stroke-miterlimit:4;stroke-dasharray:none;stroke-opacity:1;paint-order:markers fill stroke"
         d="M 101.76249,125.27258 C 85.297167,118.07013 71.163774,105.04193 61.251916,87.929803 56.49792,79.722365 52.543714,69.456143 51.497803,62.605398 l -0.129839,-0.850445 1.776013,1.704395 c 3.681661,3.533204 7.565906,6.47686 11.540312,8.745768 3.22352,1.840246 8.717307,4.771662 11.241008,5.998064 l 2.106499,1.023663 0.127371,2.603338 c 1.004739,20.536359 9.423362,35.260349 24.952783,43.641889 2.05533,1.1093 1.43182,1.01713 -1.34946,-0.19949 z"
         id="path1018" />
      <path
         style="opacity:0.999;fill:url(#linearGradient1213);fill-opacity:1;stroke:none;stroke-width:0.761759;stroke-linejoin:round;stroke-miterlimit:4;stroke-dasharray:none;stroke-opacity:1;paint-order:markers fill stroke"
         d="M 107.55317,130.61885 C 93.314645,129.48045 81.912331,126.29573 70.991054,120.40688 60.865246,114.94695 56.017217,110.81234 37.832524,92.127873 30.976722,85.083649 27.831642,82.150555 24.438927,79.637037 19.525724,75.997055 13.853998,73.176571 8.6179034,71.769426 7.5784687,71.49009 6.657682,71.195342 6.5717104,71.114435 6.3537718,70.909332 11.268114,69.326198 13.747855,68.802672 c 1.775118,-0.374766 2.586435,-0.432091 6.020346,-0.425378 3.565023,0.007 4.209063,0.05902 6.331101,0.511688 9.099623,1.941113 16.478174,5.713216 28.095356,14.363075 l 3.871151,2.88236 1.808713,3.02381 c 4.662381,7.794569 9.198583,13.610503 15.633303,20.043713 3.755032,3.75414 7.049108,6.64037 9.945176,8.71383 0.824233,0.59011 1.458524,1.11302 1.409536,1.16201 -0.127973,0.12797 -4.159445,-2.31187 -7.317507,-4.42855 C 73.286923,110.45476 67.431887,105.73 57.093349,96.531725 47.410549,87.916862 45.145385,86.018641 44.873012,86.291014 c -0.183568,0.183568 0.214408,0.607203 2.95992,3.150767 1.507181,1.39632 4.186087,3.903588 5.953125,5.571709 11.570081,10.92239 17.097806,15.48564 25.418899,20.98382 10.727333,7.08811 18.285841,10.47837 31.561014,14.15624 l 2.36235,0.65448 -1.79539,-0.0152 c -0.98746,-0.008 -2.68835,-0.0867 -3.77976,-0.17392 z"
         id="path1020" />
      <path
         style="opacity:0.999;fill:#893333;fill-opacity:1;stroke:none;stroke-width:0.761759;stroke-linejoin:round;stroke-miterlimit:4;stroke-dasharray:none;stroke-opacity:1;paint-order:markers fill stroke"
         d="m 83.645842,87.291575 c -2.181966,-3.033241 -4.766742,-7.2254 -4.5739,-7.418242 0.05469,-0.05469 0.86796,0.257641 1.807273,0.694063 l 1.707841,0.793496 0.688517,2.90208 c 0.669563,2.822189 0.761246,3.572118 0.370269,3.028603 z"
         id="path1022" />
      <path
         style="opacity:0.999;fill:url(#linearGradient1229);fill-opacity:1;stroke:none;stroke-width:0.761759;stroke-linejoin:round;stroke-miterlimit:4;stroke-dasharray:none;stroke-opacity:1;paint-order:markers fill stroke"
         d="m 64.180404,154.82126 c -8.920348,-0.59436 -21.691407,-4.21027 -30.557708,-8.6519 -2.115346,-1.05969 -2.13692,-1.07721 -2.10661,-1.71021 0.04163,-0.86947 1.895226,-4.61527 3.416755,-6.90468 2.678184,-4.0298 7.998389,-8.78363 13.672762,-12.21718 2.289535,-1.38539 9.230759,-4.79483 12.649819,-6.21342 l 2.366684,-0.98196 1.980042,1.21126 c 5.319424,3.25409 9.11462,5.08139 15.611204,7.51647 2.273544,0.85217 4.249222,1.61142 4.390393,1.68721 0.155713,0.0836 -0.855107,0.51545 -2.569816,1.09791 -1.554572,0.52806 -5.464625,1.93827 -8.689006,3.13379 -6.671609,2.47369 -8.742641,3.11107 -12.319783,3.79155 -1.393283,0.26505 -2.57682,0.52549 -2.630083,0.57875 -0.291801,0.2918 0.404297,0.32859 2.565657,0.13559 4.537008,-0.40512 7.269646,-1.11772 16.952973,-4.42084 7.031453,-2.39853 9.637781,-3.17618 10.647746,-3.17695 0.342971,-2.6e-4 2.298999,0.33416 4.346726,0.74317 3.809973,0.76099 7.963281,1.41794 10.362381,1.63907 l 1.34758,0.12421 -0.81531,1.75663 c -1.52771,3.29156 -1.82806,4.60623 -2.27662,9.96544 -0.12422,1.48405 0.11866,1.26587 -3.935224,3.53501 -5.601062,3.13516 -11.798705,5.37419 -18.252083,6.59396 -3.282447,0.62042 -12.08691,1.03841 -16.158479,0.76712 z"
         id="path1024" />
    </g>
    <g
       id="g1148"
       transform="translate(13.229169)">
      <path
         style="fill:#d51d51;fill-opacity:1;stroke-width:0.388348"
         d="m 110.23149,66.367743 c -3.03698,-1.120633 -4.17371,-3.653031 -3.33068,-7.420077 1.18148,-5.27941 6.32228,-10.152259 13.72036,-13.005262 1.6744,-0.645721 3.2207,-1.065064 3.4362,-0.931873 0.9308,0.575268 -0.0533,1.451981 -2.95213,2.629848 -5.74995,2.336381 -9.68766,5.546169 -11.51277,9.38452 -3.79428,7.979649 2.25966,9.818603 9.331,2.834404 3.04435,-3.006857 7.39807,-9.515008 10.46921,-15.649896 4.42469,-8.83878 6.38677,-14.972363 6.43899,-20.128801 0.0291,-2.868275 -0.0313,-3.094953 -1.05881,-3.980569 -2.83136,-2.440233 -10.2236,0.501469 -16.18193,6.439523 -4.45092,4.435756 -5.4858,6.979362 -4.97712,12.23297 0.15519,1.602797 -0.77711,1.527396 -1.91055,-0.154517 -0.70757,-1.049962 -0.88926,-1.85257 -0.88926,-3.928392 0,-6.65257 6.24393,-13.51385 15.10816,-16.601948 4.02842,-1.403406 9.87014,-1.493973 12.33078,-0.19117 3.37344,1.786092 4.06703,4.012369 3.06331,9.832558 -1.85531,10.758309 -9.64559,25.796026 -17.3088,33.411476 -2.08275,2.06978 -4.15858,3.729238 -5.46113,4.365743 -2.64604,1.293012 -6.15898,1.656972 -8.31483,0.861463 z"
         id="path982" />
      <path
         style="fill:#ffffff;fill-opacity:1;stroke:none;stroke-width:0.381404;stroke-opacity:1"
         d="M 67.638835,34.877256 V 16.95124 h 3.62334 3.62334 v 17.926016 17.926018 h -3.62334 -3.62334 z"
         id="path1003" />
      <path
         style="fill:#ffffff;fill-opacity:1;stroke:none;stroke-width:0.38456;stroke-opacity:1"
         d="M 78.524581,34.986339 V 16.942622 l 3.94844,0.01578 3.948452,0.01578 6.705499,11.516142 c 3.688024,6.33388 6.851589,11.606134 7.030148,11.71612 0.17857,0.109985 0.32466,-5.079386 0.32466,-11.531917 V 16.942635 h 3.46691 3.46692 V 34.986351 53.030068 L 103.65978,53.029952 99.903954,53.02985 92.970097,41.224766 86.03625,29.419673 85.934322,41.224866 85.832394,53.030068 h -3.653963 -3.653973 z"
         id="path1019" />
      <path
         style="fill:#ffffff;fill-opacity:1;stroke:none;stroke-width:0.377061;stroke-opacity:1"
         d="M 35.721482,52.136751 C 33.45448,51.33346 30.955697,48.973911 29.901582,46.641155 29.011811,44.672056 28.99927,44.475843 28.889037,30.790356 L 28.777451,16.933334 h 3.599442 3.599443 v 13.221952 c 0,8.347343 0.143138,13.4894 0.388244,13.947382 0.589983,1.102395 2.506792,1.95102 3.77677,1.672087 0.601413,-0.132094 1.522249,-0.749744 2.046321,-1.372562 l 0.952847,-1.132394 V 30.101567 16.933334 h 3.379804 3.379801 l 0.10803,13.35576 0.10802,13.35576 0.89574,0.953029 c 1.84469,1.962666 4.5799,1.541003 5.79652,-0.893595 0.58853,-1.177728 0.65933,-2.68473 0.65985,-14.045118 l 5.9e-4,-12.725836 h 3.39355 3.39356 v 13.342394 c 0,15.686512 -0.0797,16.166628 -3.20413,19.310112 -2.43621,2.45103 -4.88507,3.348693 -8.37185,3.068808 -1.82599,-0.146574 -2.88261,-0.480145 -4.28775,-1.353629 L 46.527604,50.141894 45.166448,51.0656 c -2.560363,1.737513 -6.351069,2.167418 -9.444909,1.071151 z"
         id="path1035" />
      <path
         style="fill:#ffffff;fill-opacity:1;stroke:none;stroke-width:0.382513;stroke-opacity:1"
         d="M 143.76324,35.075214 V 17.197917 h 3.65437 3.65437 v 7.235384 7.235386 l 7.21258,-0.103479 7.21258,-0.10348 0.10468,-7.1319 0.10468,-7.1319 h 3.45355 3.45355 v 17.877286 17.877291 h -3.45355 -3.45355 l -0.10468,-7.131895 -0.10468,-7.1319 -7.21258,-0.103479 -7.21258,-0.10348 v 7.235386 7.235382 h -3.65437 -3.65437 z"
         id="path1051" />
      <path
         style="fill:#ffffff;fill-opacity:1;stroke:none;stroke-width:0.381405;stroke-opacity:1"
         d="M 176.47334,35.175153 V 17.249137 h 3.62334 3.62334 v 17.926016 17.926018 h -3.62334 -3.62334 z"
         id="path1003-6" />
      <path
         style="fill:#ffffff;fill-opacity:1;stroke:none;stroke-width:0.384561;stroke-opacity:1"
         d="M 187.69559,35.308781 V 17.265064 l 3.94844,0.01578 3.94846,0.01578 6.70549,11.516142 c 3.68803,6.33388 6.8516,11.606134 7.03015,11.71612 0.17857,0.109985 0.32466,-5.079386 0.32466,-11.531917 V 17.265077 h 3.46691 3.46693 v 18.043716 18.043718 l -3.75583,-1.17e-4 -3.75583,-1.03e-4 -6.93386,-11.805083 -6.93385,-11.805093 -0.10193,11.805193 -0.10192,11.805203 h -3.65397 -3.65397 z"
         id="path1019-8" />
    </g>
  </g>
</svg>
