<?xml version="1.0" encoding="UTF-8" standalone="no"?>
<svg
   xmlns:dc="http://purl.org/dc/elements/1.1/"
   xmlns:cc="http://creativecommons.org/ns#"
   xmlns:rdf="http://www.w3.org/1999/02/22-rdf-syntax-ns#"
   xmlns:svg="http://www.w3.org/2000/svg"
   xmlns="http://www.w3.org/2000/svg"
   xmlns:sodipodi="http://sodipodi.sourceforge.net/DTD/sodipodi-0.dtd"
   xmlns:inkscape="http://www.inkscape.org/namespaces/inkscape"
   width="109.44154mm"
   height="12.733618mm"
   viewBox="0 0 109.44154 12.733618"
   version="1.1"
   id="svg855"
   inkscape:version="1.0.1 (3bc2e813f5, 2020-09-07)"
   sodipodi:docname="getting-summoner.svg">
  <defs
     id="defs849" />
  <sodipodi:namedview
     id="base"
     pagecolor="#ffffff"
     bordercolor="#666666"
     borderopacity="1.0"
     inkscape:pageopacity="0.0"
     inkscape:pageshadow="2"
     inkscape:zoom="0.7"
     inkscape:cx="559.25906"
     inkscape:cy="-49.81811"
     inkscape:document-units="mm"
     inkscape:current-layer="layer1"
     inkscape:document-rotation="0"
     showgrid="false"
     fit-margin-top="0"
     fit-margin-left="0"
     fit-margin-right="0"
     fit-margin-bottom="0"
     inkscape:window-width="1920"
     inkscape:window-height="1017"
     inkscape:window-x="1912"
     inkscape:window-y="-8"
     inkscape:window-maximized="1" />
  <metadata
     id="metadata852">
    <rdf:RDF>
      <cc:Work
         rdf:about="">
        <dc:format>image/svg+xml</dc:format>
        <dc:type
           rdf:resource="http://purl.org/dc/dcmitype/StillImage" />
        <dc:title></dc:title>
      </cc:Work>
    </rdf:RDF>
  </metadata>
  <g
     inkscape:label="Layer 1"
     inkscape:groupmode="layer"
     id="layer1"
     transform="translate(-126.279,-68.179258)">
    <g
       id="g1949"
       transform="matrix(0.32806787,0,0,0.32806787,85.371725,46.506244)">
      <path
         style="fill:none;stroke:#000000;stroke-width:1.565;stroke-miterlimit:4;stroke-dasharray:none;stroke-opacity:1"
         d="m 137.60384,95.132555 c -11.45363,-1.745197 -16.21027,-15.792475 -8.09541,-23.907329 2.95999,-2.959987 5.95968,-4.211764 10.09286,-4.211764 3.36789,0 5.8034,0.785853 8.55003,2.758787 l 0.59584,0.428 -1.36502,2.283979 c -0.75077,1.256189 -1.45068,2.283979 -1.55537,2.283979 -0.10469,0 -0.39368,-0.22469 -0.64221,-0.499312 -0.24853,-0.274622 -1.1893,-0.830247 -2.09059,-1.234722 -4.34684,-1.950745 -9.58134,0.110848 -11.6466,4.586976 -0.88027,1.907864 -0.80303,5.227385 0.16846,7.239024 0.79872,1.653892 2.43244,3.307366 4.18884,4.239504 0.9672,0.513301 1.55176,0.611268 3.66433,0.614109 1.54241,0.0021 2.84577,-0.136802 3.37343,-0.359448 l 0.8599,-0.362829 v -3.936651 -3.93665 h 2.51354 2.51354 v 5.410493 5.410493 l -0.85989,0.645328 c -2.73038,2.049071 -6.84222,3.069667 -10.26568,2.548033 z"
         id="path1713" />
      <path
         style="fill:none;stroke:#000000;stroke-width:1.565;stroke-miterlimit:4;stroke-dasharray:none;stroke-opacity:1"
         d="m 159.15885,95.282254 c -3.03064,-0.59408 -5.88411,-2.87375 -7.25538,-5.796393 -1.62,-3.452789 -1.16972,-8.470192 1.02681,-11.441739 2.94369,-3.982307 8.33422,-5.258559 12.98236,-3.073676 1.3129,0.617135 3.82446,2.748246 3.80545,3.228997 -0.007,0.168416 -2.20519,2.925585 -4.88561,6.127044 l -4.87349,5.820833 1.11529,0.08632 c 1.73717,0.134458 2.94427,-0.357753 4.10151,-1.672446 l 1.03753,-1.178698 1.79036,1.992496 1.79035,1.992502 -1.22048,1.16942 c -2.54913,2.4425 -5.93014,3.42841 -9.4147,2.74534 z m 0.72354,-11.949691 c 2.85629,-3.84313 2.95857,-4.025457 2.38125,-4.244673 -0.36773,-0.139633 -1.15603,-0.107475 -2.0192,0.08237 -1.9772,0.434863 -3.34753,1.712714 -3.90944,3.645612 -0.53136,1.827839 -0.30094,4.581953 0.38008,4.542815 0.10056,-0.0058 1.52584,-1.817535 3.16731,-4.026124 z"
         id="path1729" />
      <path
         style="fill:none;stroke:#000000;stroke-width:1.565;stroke-miterlimit:4;stroke-dasharray:none;stroke-opacity:1"
         d="m 179.88319,94.863775 c -0.75642,-0.2908 -1.95152,-1.04679 -2.65577,-1.67998 -2.4788,-2.22865 -3.23926,-4.604789 -3.24297,-10.132974 l -0.002,-2.976563 h -1.19063 -1.19062 v -2.513542 -2.513541 h 1.19062 1.19063 v -4.101042 -4.101042 h 2.64583 2.64584 v 4.101042 4.101042 h 3.96875 3.96875 v 2.513541 2.513542 h -3.96875 -3.96875 l 9.8e-4,3.770313 c 8.7e-4,3.295401 0.0672,3.87893 0.52674,4.632627 0.93045,1.526052 1.90828,1.913701 4.83008,1.914821 l 2.5797,9.89e-4 v 2.513547 2.51354 l -2.97657,-0.0138 c -2.31605,-0.0107 -3.28174,-0.13111 -4.35186,-0.54252 z"
         id="path1745" />
      <path
         style="fill:none;stroke:#000000;stroke-width:1.565;stroke-miterlimit:4;stroke-dasharray:none;stroke-opacity:1"
         d="m 197.64805,94.863776 c -0.75642,-0.2908 -1.95152,-1.046789 -2.65577,-1.67998 -2.4788,-2.22865 -3.23926,-4.604789 -3.24297,-10.132974 l -0.002,-2.976563 h -1.19063 -1.19062 v -2.513542 -2.513541 h 1.19062 1.19063 v -4.101042 -4.101042 h 2.64583 2.64584 v 4.101042 4.101042 h 3.96875 3.96875 v 2.513541 2.513542 h -3.96875 -3.96875 l 9.8e-4,3.770313 c 8.7e-4,3.295401 0.0672,3.87893 0.52674,4.632627 0.93045,1.526052 1.90828,1.913701 4.83008,1.914821 l 2.5797,9.79e-4 v 2.513547 2.513541 l -2.97657,-0.01381 c -2.31605,-0.01069 -3.28174,-0.131111 -4.35186,-0.54252 z"
         id="path1745-7" />
      <path
         style="fill:none;stroke:#000000;stroke-width:1.565;stroke-miterlimit:4;stroke-dasharray:none;stroke-opacity:1"
         d="M 208.22707,85.252526 V 75.066067 h 2.51354 2.51354 v 10.186459 10.186458 h -2.51354 -2.51354 z m 0.7601,-12.219441 c -2.04277,-1.267784 -2.05947,-4.690257 -0.028,-5.740101 2.22684,-1.15082 4.78993,-0.04195 5.2216,2.259028 0.51516,2.746063 -2.79883,4.967312 -5.19358,3.481073 z"
         id="path1776" />
      <path
         style="fill:none;stroke:#000000;stroke-width:1.565;stroke-miterlimit:4;stroke-dasharray:none;stroke-opacity:1"
         d="M 216.56142,85.214733 V 75.028276 h 0.65018 c 0.42593,0 0.90502,0.319391 1.38906,0.926033 0.80299,1.00638 1.16745,1.128599 1.646,0.551981 0.17075,-0.205737 0.8585,-0.631681 1.52833,-0.946541 4.56726,-2.146865 9.85924,-0.335443 12.13366,4.153295 l 0.77673,1.53294 0.0819,7.077603 0.0819,7.077604 h -2.52932 -2.52932 v -6.243868 c 0,-7.018919 -0.11331,-7.562184 -1.81903,-8.721246 -1.90714,-1.295939 -4.4694,-0.634974 -5.70729,1.472264 -0.49959,0.850436 -0.55021,1.432575 -0.62693,7.208996 l -0.0835,6.283854 h -2.49623 -2.49623 z"
         id="path1792" />
      <path
         style="fill:none;stroke:#000000;stroke-width:1.565;stroke-miterlimit:4;stroke-dasharray:none;stroke-opacity:1"
         d="m 245.13646,101.51738 v -2.544317 l 1.91823,-0.006 c 2.91214,-0.009 4.46756,-0.86542 5.33315,-2.93707 l 0.3924,-0.93915 -1.18566,0.60026 c -3.58937,1.81717 -9.27561,0.52164 -11.90643,-2.71271 -1.75002,-2.15149 -2.32618,-3.93064 -2.34287,-7.23468 -0.0131,-2.58876 0.0434,-2.89939 0.82866,-4.55701 1.71523,-3.62076 4.83833,-5.90121 8.50246,-6.2084 2.34485,-0.19658 4.23487,0.3533 6.54973,1.90559 l 1.77387,1.18951 0.87805,-0.99349 c 0.48293,-0.54642 0.883,-1.08279 0.88906,-1.19193 0.006,-0.10914 0.3151,-0.19844 0.68676,-0.19844 h 0.67575 l -0.0804,10.2526 -0.0804,10.25261 -0.8154,1.72055 c -1.04879,2.213027 -2.93415,4.095337 -5.13697,5.128667 -1.46191,0.68577 -2.10833,0.82291 -4.30023,0.91231 l -2.57969,0.10522 z m 5.47519,-11.174727 c 2.99845,-2.41042 3.10413,-6.52304 0.23241,-9.04444 -2.51033,-2.20411 -6.31376,-1.42557 -7.86203,1.6093 -0.81805,1.60349 -0.63453,4.70786 0.36784,6.22252 1.0672,1.6126 2.30775,2.19336 4.48365,2.09901 1.51745,-0.0658 1.91523,-0.19272 2.77813,-0.88639 z"
         id="path1808" />
      <path
         style="fill:none;stroke:#000000;stroke-width:1.565;stroke-miterlimit:4;stroke-dasharray:none;stroke-opacity:1"
         d="m 270.41793,92.978601 v -2.645834 h 6.36739 c 4.1684,0 6.56698,-0.102068 6.94532,-0.29555 0.99735,-0.510053 1.49185,-1.35807 1.49807,-2.569073 0.005,-0.904225 -0.14898,-1.299698 -0.73098,-1.881702 -0.73027,-0.730264 -0.77475,-0.738134 -4.96094,-0.877804 -4.88588,-0.163016 -6.08413,-0.480817 -7.92608,-2.102167 -1.74938,-1.539863 -2.57369,-3.305457 -2.72555,-5.837827 -0.11396,-1.900491 -0.0603,-2.182496 0.7145,-3.756385 0.97894,-1.988511 2.66562,-3.597927 4.47097,-4.266177 1.02988,-0.381209 2.45132,-0.47935 8.3197,-0.574415 l 7.0776,-0.114654 v 2.803503 2.803502 h -6.60213 c -4.18351,0 -6.833,0.105187 -7.23232,0.287129 -1.33651,0.608957 -1.87363,2.478215 -1.12699,3.922076 0.56818,1.098734 1.45032,1.310112 5.8396,1.399287 3.88275,0.07888 4.01597,0.100911 5.73835,0.948837 1.99527,0.982266 2.90957,1.931344 3.86675,4.013813 1.45407,3.163496 0.63063,6.927162 -2.04043,9.326215 -2.14624,1.92768 -2.86115,2.065869 -10.67981,2.064369 l -6.81302,-0.0013 z"
         id="path1824" />
      <path
         style="fill:none;stroke:#000000;stroke-width:1.565;stroke-miterlimit:4;stroke-dasharray:none;stroke-opacity:1"
         d="m 312.58468,85.21003 -0.0444,10.186365 -0.65017,-0.003 c -0.42593,-0.002 -0.90362,-0.32333 -1.38501,-0.93208 -0.7986,-1.00987 -1.16252,-1.13368 -1.64358,-0.55915 -0.17164,0.20499 -0.86124,0.62793 -1.53244,0.93987 -4.57658,2.12693 -9.86061,0.29245 -12.11544,-4.206159 l -0.77004,-1.536312 -0.051,-7.077893 -0.051,-7.077891 2.52929,0.01103 2.5293,0.01103 -0.0272,6.243807 c -0.0306,7.018852 0.0803,7.562606 1.78099,8.729094 1.90147,1.304241 4.46659,0.654454 5.71365,-1.447367 0.5033,-0.848251 0.55645,-1.430163 0.65836,-7.206195 l 0.11089,-6.283428 2.49621,0.01088 2.4962,0.01088 z"
         id="path1792-4" />
      <path
         style="fill:none;stroke:#000000;stroke-width:1.565;stroke-miterlimit:4;stroke-dasharray:none;stroke-opacity:1"
         d="M 316.45415,85.333883 V 75.147424 h 0.63794 c 0.38951,0 0.90853,0.321585 1.33281,0.825806 0.63865,0.759002 0.73191,0.792284 1.15275,0.411423 1.00054,-0.905471 2.80765,-1.490119 4.62406,-1.496001 1.9981,-0.0065 3.38787,0.457837 4.46848,1.492871 l 0.70666,0.676861 0.89508,-0.682711 c 1.42416,-1.086262 2.68754,-1.493043 4.62841,-1.490247 3.09036,0.0045 5.66184,1.702751 7.0069,4.627624 0.58086,1.263093 0.61205,1.654935 0.68984,8.665104 l 0.0815,7.342188 h -2.52887 -2.52887 v -6.49079 c 0,-6.96626 -0.13533,-7.834692 -1.35384,-8.688173 -1.2157,-0.851506 -3.28141,-0.311276 -3.88632,1.016361 -0.21862,0.479818 -0.31609,2.770454 -0.31609,7.428176 v 6.734426 h -2.50121 -2.50121 l -0.0785,-7.033556 -0.0785,-7.033555 -0.86407,-0.771654 c -1.16756,-1.042681 -2.39597,-1.042681 -3.56352,0 l -0.86408,0.771654 -0.0785,7.033555 -0.0785,7.033556 h -2.5012 -2.50121 z"
         id="path1855" />
      <path
         style="fill:none;stroke:#000000;stroke-width:1.565;stroke-miterlimit:4;stroke-dasharray:none;stroke-opacity:1"
         d="M 346.45795,85.466235 V 75.279776 h 0.63794 c 0.38951,0 0.90853,0.321585 1.33281,0.825806 0.63865,0.759002 0.73191,0.792284 1.15275,0.411423 1.00054,-0.905471 2.80765,-1.490119 4.62406,-1.496001 1.9981,-0.0065 3.38787,0.457837 4.46848,1.492871 l 0.70666,0.67686 0.89508,-0.68271 c 1.42416,-1.086262 2.68754,-1.493043 4.62841,-1.490247 3.09036,0.0045 5.66184,1.702751 7.0069,4.627623 0.58087,1.263094 0.61205,1.654936 0.68984,8.665105 l 0.0815,7.342188 h -2.52887 -2.52887 v -6.49079 c 0,-6.96626 -0.13533,-7.834692 -1.35384,-8.688173 -1.2157,-0.851506 -3.28141,-0.311277 -3.88632,1.016361 -0.21862,0.479817 -0.31609,2.770454 -0.31609,7.428176 v 6.734426 h -2.50121 -2.50121 l -0.0785,-7.033556 -0.0785,-7.033555 -0.86407,-0.771654 c -1.16756,-1.042681 -2.39597,-1.042681 -3.56352,0 l -0.86408,0.771654 -0.0785,7.033555 -0.0785,7.033556 h -2.5012 -2.50121 z"
         id="path1855-8" />
      <path
         style="fill:none;stroke:#000000;stroke-width:1.565;stroke-miterlimit:4;stroke-dasharray:none;stroke-opacity:1"
         d="m 383.30117,95.944381 c -6.53986,-1.75742 -9.65567,-9.22738 -6.50658,-15.59913 1.11885,-2.26385 2.42498,-3.51695 4.91267,-4.71324 1.56237,-0.75132 1.94987,-0.82607 4.23333,-0.81666 3.1665,0.013 4.94149,0.65738 7.0042,2.54258 5.21465,4.7659 4.25433,13.99567 -1.82693,17.55876 -1.31426,0.77004 -3.85547,1.45795 -5.299,1.43443 -0.58789,-0.01 -1.72085,-0.19261 -2.51769,-0.40674 z m 4.67272,-5.14893 c 3.39959,-1.28445 4.37085,-6.54575 1.72298,-9.33335 -1.07735,-1.13421 -2.14262,-1.5832 -3.75628,-1.5832 -1.70686,0 -2.77616,0.4874 -3.91504,1.78451 -2.37497,2.70494 -1.50328,7.41976 1.66608,9.01154 0.92204,0.46309 3.20547,0.52734 4.28226,0.1205 z"
         id="path1886" />
      <path
         style="fill:none;stroke:#000000;stroke-width:1.565;stroke-miterlimit:4;stroke-dasharray:none;stroke-opacity:1"
         d="m 429.38298,96.26575 c -3.03064,-0.59408 -5.88411,-2.87375 -7.25538,-5.796393 -1.62,-3.452789 -1.16972,-8.470192 1.02681,-11.441739 2.94369,-3.982307 8.33422,-5.258559 12.98236,-3.073676 1.3129,0.617135 3.82446,2.748246 3.80545,3.228997 -0.007,0.168416 -2.20519,2.925585 -4.88561,6.127044 l -4.87349,5.820833 1.11529,0.08632 c 1.73717,0.134458 2.94427,-0.357753 4.10151,-1.672446 l 1.03753,-1.178698 1.79036,1.992496 1.79035,1.992502 -1.22048,1.16942 c -2.54913,2.4425 -5.93014,3.42841 -9.4147,2.74534 z m 0.72354,-11.949691 c 2.85629,-3.84313 2.95857,-4.025457 2.38125,-4.244673 -0.36773,-0.139633 -1.15603,-0.107475 -2.0192,0.08237 -1.9772,0.434863 -3.34753,1.712714 -3.90944,3.645612 -0.53136,1.827839 -0.30094,4.581953 0.38008,4.542815 0.10056,-0.0058 1.52584,-1.817535 3.16731,-4.026124 z"
         id="path1729-5" />
      <path
         style="fill:none;stroke:#000000;stroke-width:1.565;stroke-miterlimit:4;stroke-dasharray:none;stroke-opacity:1"
         d="M 399.47199,85.623535 V 75.437078 h 0.65018 c 0.42593,0 0.90502,0.319391 1.38906,0.926033 0.80299,1.00638 1.16745,1.128599 1.646,0.551981 0.17075,-0.205737 0.8585,-0.631681 1.52833,-0.946541 4.56726,-2.146865 9.85924,-0.335443 12.13366,4.153296 l 0.77673,1.53294 0.0819,7.077603 0.0819,7.077604 h -2.52932 -2.52932 v -6.243868 c 0,-7.018919 -0.11331,-7.562184 -1.81903,-8.721247 -1.90714,-1.295938 -4.4694,-0.634974 -5.70729,1.472264 -0.49959,0.850437 -0.55021,1.432575 -0.62693,7.208997 l -0.0835,6.283854 h -2.49623 -2.49623 z"
         id="path1792-7" />
      <path
         style="fill:none;stroke:#000000;stroke-width:1.565;stroke-miterlimit:4;stroke-dasharray:none;stroke-opacity:1"
         d="m 444.00946,85.869776 c 0,-9.901201 0.0144,-10.186463 0.51273,-10.186463 0.30461,0 0.85978,0.483267 1.36777,1.190623 0.47027,0.65485 0.90233,1.19063 0.96013,1.19063 0.0578,0 0.4841,-0.28595 0.94734,-0.63545 1.66329,-1.254891 2.7758,-1.550552 6.33234,-1.682869 l 3.37344,-0.125504 v 2.521413 2.52142 l -2.89196,0.0896 c -3.19475,0.0989 -3.81172,0.35557 -4.97939,2.07124 -0.5754,0.84543 -0.59532,1.08142 -0.59532,7.05328 v 6.17858 h -2.51354 -2.51354 z"
         id="path1932" />
    </g>
  </g>
</svg>
